<svg xmlns="http://www.w3.org/2000/svg" viewBox="0 0 412.43 655.36"><defs><style>.cls-1{fill:#771919;}.cls-2{fill:#dda99c;}.cls-3{fill:#cf7e6b;}.cls-4{fill:#782517;}.cls-5{fill:#894039;}.cls-6{fill:#fff;}.cls-7{fill:#723330;}.cls-8{fill:#681f15;}.cls-9{fill:#241e1e;}</style></defs><g id="Calque_3" data-name="Calque 3"><path class="cls-1" d="M148.26,733.82H463.65S478.18,611,366.76,581.53c-86.24-5.23-118.7-2.38-118.7-2.38S148.26,598.19,148.26,733.82Z" transform="translate(-97.66 -78.46)"/></g><g id="Calque_5" data-name="Calque 5"><polygon class="cls-2" points="210.67 518.14 254.14 498.98 254.14 437.4 210.67 438.42 210.67 518.14"/><polygon class="cls-3" points="210.67 517.83 168.47 498.73 168.47 437.4 210.67 438.41 210.67 517.83"/></g><g id="Calque_7" data-name="Calque 7"><path class="cls-4" d="M155.13,351.67s-31.07-20-44.93,9.52,33.46,55.68,45.89,56.63c0,0,7.81,40,39.67,68.85,14.5,14.43,44.93,33.95,75.05,44.42,0,0,11.47,25.22,37.28,21.41l.24-51.4Z" transform="translate(-97.66 -78.46)"/><path class="cls-5" d="M462.28,351.51s31.3-20,45.27,9.52-33.71,55.68-46.23,56.63c0,0-7.87,40-40,68.85-14.61,14.43-45.27,34-75.61,44.42,0,0-11.56,25.22-37.57,21.41l-.24-51.4Z" transform="translate(-97.66 -78.46)"/></g><g id="Calque_6" data-name="Calque 6"><path class="cls-6" d="M307.38,595.49l49.81,61.24s12.69-69.8,9.84-87.57L351.8,538.38S348.62,571.7,307.38,595.49Z" transform="translate(-97.66 -78.46)"/><path class="cls-6" d="M310.65,595.49l-49.81,61.24s-12.69-69.8-9.84-87.57l15.23-30.78S269.41,571.7,310.65,595.49Z" transform="translate(-97.66 -78.46)"/></g><g id="Calque_4" data-name="Calque 4"><path class="cls-3" d="M308.33,234.12v299.5s-72.74-6.58-99.78-44.41c-15.55-17.38-30.94-40-33.79-80.43s-8.57-96.14-8.57-96.14l-3.33-48.54,56.63-62.35Z" transform="translate(-97.66 -78.46)"/><path class="cls-2" d="M308.33,234.12v299.5s72.73-6.58,99.78-44.41c15.55-17.38,30.94-40,33.79-80.43s8.57-96.14,8.57-96.14l3.33-48.54-56.63-62.35Z" transform="translate(-97.66 -78.46)"/></g><g id="Calque_8" data-name="Calque 8"><path class="cls-7" d="M470,363.09s4-12.61,15.94-10.23,13.57,7.85,14,13.08-1.21,21.42-14.51,29c-11.93,6.83-18.75,10.25-21.18,10.71,0,0-9.28.48-3.57-10.71s5.35-7.13,8.45-14.27C472.18,375.37,469.39,366.66,470,363.09Z" transform="translate(-97.66 -78.46)"/><path class="cls-8" d="M145.52,363.09s-4-12.61-15.94-10.23-13.56,7.85-14,13.08,1.22,21.42,14.52,29c11.92,6.83,18.75,10.25,21.18,10.71,0,0,9.28.48,3.56-10.71s-5.35-7.13-8.44-14.27C143.33,375.37,146.12,366.66,145.52,363.09Z" transform="translate(-97.66 -78.46)"/></g><g id="Calque_2" data-name="Calque 2"><path class="cls-9" d="M442.54,393.71c6.16-7.36,11.7-15.85,26.33-52,28.56-64.4-5.08-146.26-5.08-146.26s-30.45-48.86-67.26-72.34-43.15-28.55-43.15-28.55l2.54,9.51S326.1,82.46,291.83,79.29s-41.24,3.8-41.24,3.8,22.84,2.54,27.92,8.89c0,0-34.9-6.35-59.65,9.52a146.53,146.53,0,0,0-39.34,38.07s-14,31.73-37.44,35.53-44.42-4.44-44.42-4.44,17.13,28.56,48.23,25.38c0,0-11.9,34.9-11.9,66s0,78.76,20.46,107.24c12.31,17.85,18.28,18.79,18.72,17.76,0,0-7.61-47.91,4.44-100.26,11.88-51.6,48.23-60.91,57.11-62.18,0,0,23.65-1.48,47,17.77,24.28,20,38.07,8.88,48.54,1.26-.57.49,18.4-22.2,45.37-23.47,16.39-1.92,32.8,4.52,44.42,20.3,12.32,16.73,22.69,36,24.11,85C447.61,373.72,442.54,393.71,442.54,393.71Z" transform="translate(-97.66 -78.46)"/></g></svg>