<svg xmlns="http://www.w3.org/2000/svg" viewBox="0 0 499.07 661.55"><defs><style>.cls-1{fill:#271c21;}.cls-2{fill:#cf7e70;}.cls-3{fill:#dea89e;}.cls-4{fill:#fff;}.cls-5{fill:#84341f;}.cls-6{fill:#ab6661;}.cls-7{fill:#9b5b59;}.cls-8{fill:#772c1d;}.cls-9{fill:#cf7e6b;}.cls-10{fill:#dda99c;}.cls-11{fill:#483e2b;}.cls-12{fill:#835730;}.cls-13{fill:#ff8;}</style></defs><g id="Calque_2" data-name="Calque 2"><path class="cls-1" d="M420.13,516.07s38.79,6.77,24.63,51.11-11.7,47.42-1.23,62.2,65.89,34.49,84.37,46.8,45.57,33.87,23.4,80.06c0,0-4-28.94-19.71-37.57l-.31,38.19H448.45L220.19,632.46s-20.12-35.31-6.57-62S420.13,516.07,420.13,516.07Z" transform="translate(-60.55 -95.3)"/></g><g id="Calque_5" data-name="Calque 5"><path class="cls-2" d="M174,645.39s27.77-7,41.44-15L283,640.82v75l-99.78-12.62Z" transform="translate(-60.55 -95.3)"/><path class="cls-3" d="M387,646.46s-23.44-7.28-36.63-15.44L283,642.67v76.41l96.21-12.86Z" transform="translate(-60.55 -95.3)"/></g><g id="Calque_6" data-name="Calque 6"><path class="cls-4" d="M210.36,632.81s31.56,24.49,71.85,24.49,59.78-12.66,77-21.5c-4.58-3.73-21.05-13.76-27.6-53.1l-45,12.7L232,581.34S231.3,620.14,210.36,632.81Z" transform="translate(-60.55 -95.3)"/></g><g id="Calque_8" data-name="Calque 8"><path class="cls-5" d="M113.8,391.86s-34.87-22-50.43,10.47,37.55,61.22,51.5,62.26c0,0,12.31,41,48.07,72.72,16.27,15.87,46.88,40.31,80.67,51.82,0,0,9.83,23.8,41.85,23.55l.26-56.52Z" transform="translate(-60.55 -95.3)"/><path class="cls-6" d="M455,391.69s34.42-22,49.77,10.46-37.06,61.22-50.83,62.27c0,0-12.46,41.46-47.76,73.2-16.06,15.87-46,39.82-79.32,51.34,0,0-11.42,25-41.3,23.54L285.29,556Z" transform="translate(-60.55 -95.3)"/></g><g id="Calque_9" data-name="Calque 9"><path class="cls-7" d="M463.46,404.42s4.44-13.87,17.53-11.25,14.91,8.63,15.43,14.39-1.33,23.54-16,31.92c-13.11,7.51-20.61,11.27-23.28,11.77,0,0-10.21.52-3.93-11.77s5.89-7.85,9.29-15.7C465.87,417.93,462.8,408.34,463.46,404.42Z" transform="translate(-60.55 -95.3)"/><path class="cls-8" d="M106.72,404.42s-4.45-13.87-17.53-11.25-14.91,8.63-15.43,14.39,1.33,23.54,16,31.92c13.11,7.51,20.61,11.27,23.28,11.77,0,0,10.2.52,3.93-11.77s-5.89-7.85-9.29-15.7C104.31,417.93,107.38,408.34,106.72,404.42Z" transform="translate(-60.55 -95.3)"/></g><g id="Calque_7" data-name="Calque 7"><path class="cls-9" d="M285.72,262.62v329.3s-80-7.24-109.71-48.84c-17.09-19.1-43.48-59-45.26-93.6C114.33,408.74,120.83,349,120.83,349l5-53.37L188.05,227Z" transform="translate(-60.55 -95.3)"/><path class="cls-10" d="M285.72,262.62v329.3s80-7.24,109.71-48.84c17.1-19.1,34-44,37.15-88.43S442,349,442,349l3.67-53.37L383.4,227Z" transform="translate(-60.55 -95.3)"/></g><g id="Calque_10" data-name="Calque 10"><path class="cls-1" d="M406,507.44s57.58-31.1,71.13-116.7,2.16-133.94,2.16-133.94S460.16,127.48,356.7,104.69s-149.65,3.08-149.65,3.08C193.5,114.54,180.18,127.33,157,139c-24.3,12.19-36.54,9.44-57.89,32.85S62.53,255.57,62.53,275.69s-3.69,84.57,22.58,129.73,63.64,99.77,63.64,99.77-27.1-50.91-23-126.87,59.94-101.4,59.94-101.4,34.08,27.51,93.61,41.05S386.05,369.7,386.05,369.7s25.45,14,29.56,55S411.92,500.67,406,507.44Z" transform="translate(-60.55 -95.3)"/></g><g id="Calque_4" data-name="Calque 4"><path class="cls-11" d="M198,694.45s82.93,25.46,168.32,2.47l-62.4,59.94H252.62Z" transform="translate(-60.55 -95.3)"/></g><g id="Calque_3" data-name="Calque 3"><path class="cls-12" d="M105.64,756.86h351s-14.37-84.17-69.8-110.44c0,0-48.44,101-107.15,109.2,0,0-48.45-7.8-105.52-110.43C174.2,645.19,121.65,662,105.64,756.86Z" transform="translate(-60.55 -95.3)"/></g><g id="Calque_11" data-name="Calque 11"><circle class="cls-13" cx="47.66" cy="376.73" r="19.71"/><circle class="cls-1" cx="47.66" cy="376.42" r="10.32"/><circle class="cls-13" cx="395.81" cy="376.73" r="19.71"/><circle class="cls-1" cx="395.81" cy="376.42" r="10.32"/></g></svg>