<svg xmlns="http://www.w3.org/2000/svg" xmlns:xlink="http://www.w3.org/1999/xlink" width="1920" height="802.016" viewBox="0 0 1920 802.016">
  <defs>
    <linearGradient id="linear-gradient" x1="0.5" y1="1" x2="0.5" gradientUnits="objectBoundingBox">
      <stop offset="0" stop-color="#798ebe"/>
      <stop offset="1" stop-color="#164492"/>
    </linearGradient>
  </defs>
  <path id="Tracé_4" data-name="Tracé 4" d="M1677.547.018c7.083,11.16,20.352,43.888,23.329,108.621,12.1,72.945,82.406,105.542,106.6,118.308s69.553,61.091,70.057,119.218c-1.7,56.568.664,123.55-95.026,172.806-63.485,32.123-124.218-9.364-193.268,72.7-36.288,55.62-138.1,87.533-209.668,90.725-101.306,3.419-183.658-31.442-250.187-58.8-98.282-38.3-206.961-32.825-257.362-16.413S719.407,648.674,646.83,646.851C533.05,644.457,475.667,605.087,429.3,583.2c-79.382-32.141-149.383-28.7-223.062-41.683C99.638,521.005,61.165,462.193,49.741,417.058,39.157,373.3,31.344,299.435,92.33,244.271c39.824-36.023,91.729-54.709,117.938-82.063,42-55.012,27.387-65.95,43.009-109.113C264.7,28.478,279.146,7.977,294.265.007L0,0V532.4s36.032-1.762,62.3,32.629c27.487,35.989,39.718,81.383,152.021,113.279,153.192,38.3,228.766-21.885,387.213,30.794,308.425,149.536,589.276,80.242,643.4,52.887,164.593-65.653,247.149-40.121,394.213-63.829,77.329-13.594,154.607-40.8,188.245-70.83C1886.149,577.094,1920,523.284,1920,523.284V.02Z" transform="translate(0 -0.005)" fill="url(#linear-gradient)"/>
</svg>
