<svg xmlns="http://www.w3.org/2000/svg" xmlns:xlink="http://www.w3.org/1999/xlink" width="1873.021" height="693.583" viewBox="0 0 1873.021 693.583">
  <defs>
    <linearGradient id="linear-gradient" x1="0.5" y1="1" x2="0.5" gradientUnits="objectBoundingBox">
      <stop offset="0" stop-color="#6f70a6"/>
      <stop offset="1" stop-color="#1a3072"/>
    </linearGradient>
  </defs>
  <path id="Tracé_5" data-name="Tracé 5" d="M239.531,53.935c-15.946,43.848-1.029,54.96-43.9,110.846-26.75,27.788-79.729,46.77-120.377,83.365-62.247,56.04-54.273,131.078-43.47,175.531,11.66,45.851,50.929,105.6,159.732,126.438,75.2,13.192,144.5,12.106,225.526,44.757,47.328,22.231,112.072,70.061,228.2,72.493,74.079,1.852,190.856-32.567,242.3-49.241s150.713-10.18,251.027,28.724c67.906,27.788,147.146,49.851,250.547,46.378,73.05-3.242,176.966-35.662,214.005-92.166,70.478-83.365,132.467-41.219,197.266-73.853,97.668-50.037,95.252-118.083,96.991-175.549-.515-59.05-46.814-108.143-71.506-121.111s-96.457-46.083-108.8-120.186C1714.034,44.6,1700.491,11.352,1693.261.016l-77.913,0a117.164,117.164,0,0,1,5.473,48.707c-2.085,43.4,17.938,112.882,57.071,122.072,59.417,21.256,93.816,109.553,54.205,167.146-50.3,41.943-78.18,45.351-97.986,75.956-31.966,50.637-11.906,87.729-65.068,145.949-112.58,80.755-172.453,32.708-232.217,6.833-120.4-54.463-157.723,40.864-343.27-44.273-109.279-31.557-188.225,11.268-248.684,32.97-50.035,19.2-101.525,42.461-166.675,8.239-60.459-30.049-97.656-64-182.091-51.064-175.123,30.049-240-79.659-196.339-131.207,32.549-32.764,36.832-65.383,10.946-95.154-36.484-69.7,35.962-135.218,81.307-145.234,25.886-8.973,46.908-25.876,58.374-57.176C357.17,49.143,361.748,24.857,342.055,0H281.367C265.935,8.1,251.19,28.927,239.531,53.935Z" transform="translate(-24.362 -0.004)" fill="url(#linear-gradient)"/>
</svg>
