<svg xmlns="http://www.w3.org/2000/svg" xmlns:xlink="http://www.w3.org/1999/xlink" width="1598.892" height="704.779" viewBox="0 0 1598.892 704.779">
  <defs>
    <linearGradient id="linear-gradient" x1="0.5" y1="1" x2="0.5" gradientUnits="objectBoundingBox">
      <stop offset="0" stop-color="#3c3e65"/>
      <stop offset="1" stop-color="#1d2754"/>
    </linearGradient>
  </defs>
  <path id="Tracé_6" data-name="Tracé 6" d="M336.617,94.863c-17.374,34.456-41.256,38.084-67.4,48.243-45.8,11.341-103.707,102.027-66.853,180.942C125.979,369.355,182.66,583.532,404,579.222c85.29-14.649,104.243,17.011,165.315,51.035,65.809,38.748,126.355,20.319,176.9-1.418,61.071-24.572,192.164-65.056,246.918-37.331,187.427,96.4,217.436,19.374,339.052,81.041,60.37,29.3,144.519,65.212,258.238-26.226,53.7-65.92,17.462-120.341,49.753-177.677,20.006-34.653,59.492-30.951,98.978-86,40.012-65.211,44.633-184.065-15.386-208.132-39.53-10.406-99.123-70.2-97.018-119.341,2.7-31.188-5.528-55.151-5.528-55.151L520.526.006H335.033C354.924,28.145,343.461,55.642,336.617,94.863Zm39.008,99.989c13.089-11.437,59.968-51.785,181.487-38.732,73.736,6.347,133.618,23.289,197.868.26,37.75-17.024,95.615-32.148,182.693-21.175,42.259,4.62,183.669,32.465,183.547,30.8l146.942.283c-3.809,1.879,67.584-5.351,181.736-17.608,76.833-.962,94.334,19.443,103.3,24.255,13.713,13.64,18.875,26.729,15.978,62.344,3.047,45.268,59.931,52.207,46.839,98.04-15.8,44.864-51.072,48.778-90.518,82.547-67.042,50.836-112.119,18.43-181.644,12.943-64.172-7.65-150.857,9.857-178.96,17.361-126.748,28.807-168.274,51.064-303.082,17.362-93.192-12.511-114.128,41.106-172.852,32.681-76.085-3.064-84.481-31.39-161.617-47.49-50.3-8.936-91.905-10.6-133.276-5.431-82.724,6.708-73.277-56.866-61.669-78.261,9.37-26.7,32.394-52.046,30.363-82.548C359.711,252.224,338.531,226.649,375.625,194.852Z" transform="translate(-170.188 -0.005)" fill="url(#linear-gradient)"/>
</svg>
